<svg id="Ebene_1" data-name="Ebene 1" xmlns="http://www.w3.org/2000/svg" viewBox="0 0 169.67 317.64"><defs><style>.cls-1{fill:#303030;}</style></defs><title>logo</title><path class="cls-1" d="M611.25,298.1c3.47,3.09,54.47,27.55,60,33.77,2.35,2.65,2.44,11.16,2.49,14.73,0.55,39.8,2.6,80.05-4.9,119.06a6.55,6.55,0,0,1-10,4.31c-10.67-6.93-20.17-12-31.22-18.37-13.68-7.84-20.44-9.24-36.63-9.24-22.22,0-82.22,22.41-82.22,22.41s-3.28-89.07-.2-129.61c11.86,1.48,23.81,2.18,33.75,8.81,2,1.34,4,2.87,5.11,5,1.38,2.78.95,6.08,0.61,9.17-1.71,15.65-.57,35.23,4.18,50.24a5.12,5.12,0,0,0,2,3.16c1.62,0.89,3.59-.14,5.14-1.15L590,389.54s12.23,9.33,15.14,11.34c9.31,6.44,16.29,10.85,27.5,12.47,1-16-1.06-33.77-2.65-49.72-0.27-2.72-.61-5.52-2-7.88-1.81-3.08-5.11-4.91-8.25-6.6-35-18.81-63.43-32.42-98.46-51.23" transform="translate(-507.28 -153.37)"/><path class="cls-1" d="M574.64,325.63c-3.91-2.51-56.14-26.9-61.65-33.12-2.35-2.65-2.44-11.16-2.49-14.73-0.55-39.8-2.6-80.05,4.9-119.06a6.55,6.55,0,0,1,10-4.31c10.67,6.93,21.05,10.33,32.1,16.66,13.68,7.84,20.44,9.24,36.63,9.24,22.22,0,81.34-20.7,81.34-20.7s3.28,89.07.2,129.61c-11.86-1.48-23.81-2.18-33.75-8.81-2-1.34-4-2.87-5.11-5-1.38-2.78-.95-6.08-0.61-9.17,1.71-15.65.57-35.23-4.18-50.24a5.12,5.12,0,0,0-2-3.16c-1.62-.89-3.59.14-5.14,1.15l-30.6,20.89S582,225.51,579.08,223.5c-9.31-6.44-16.29-10.85-27.5-12.47-1,16,1.06,33.77,2.65,49.72,0.27,2.72.61,5.52,2,7.88,1.81,3.08,5.11,4.91,8.25,6.6,35,18.81,38.74,16.92,95.95,49" transform="translate(-507.28 -153.37)"/></svg>