<?xml version="1.0" encoding="utf-8"?>
<!-- Generator: Adobe Illustrator 19.2.1, SVG Export Plug-In . SVG Version: 6.00 Build 0)  -->
<svg version="1.1" id="Ebene_1" xmlns="http://www.w3.org/2000/svg" xmlns:xlink="http://www.w3.org/1999/xlink" x="0px" y="0px"
	 viewBox="0 0 151.6 224.8" style="enable-background:new 0 0 151.6 224.8;" xml:space="preserve">
<style type="text/css">
	.st0{fill:#FFFFFF;stroke:#000000;stroke-width:8;stroke-miterlimit:10;}
</style>
<path class="st0" d="M79.6,217h-7.9c-33.5,0-61-27.4-61-61V69.7c0-33.5,27.5-61,61-61h7.9c33.5,0,61,27.5,61,61V156
	C140.6,189.6,113.1,217,79.6,217z"/>
<g>
	<path d="M75.6,25.9c0,0,0.2,0.2,0.4,0.7c0.3,0.4,0.7,1.1,1.1,1.9c0.5,0.8,1,1.8,1.6,2.9c0.3,0.6,0.6,1.2,0.9,1.8
		c0.2,0.3,0.1,0.6,0.1,1c-0.1,0.3,0,0.7,0,1c0,5.5,0,12.9,0,20.2s0,14.7,0,20.2c0,0.3,0,0.7,0,1c0.1,0.3,0.1,0.7-0.1,1
		c-0.3,0.6-0.6,1.2-0.9,1.8c-0.6,1.1-1.1,2.1-1.5,2.9c-0.4,0.8-0.8,1.4-1.1,1.9c-0.3,0.4-0.4,0.7-0.4,0.7s-0.1-0.2-0.4-0.7
		c-0.3-0.4-0.7-1.1-1.1-1.9c-0.4-0.8-1-1.8-1.5-2.9c-0.3-0.6-0.6-1.2-0.9-1.8c-0.2-0.3-0.2-0.6-0.1-1c0.1-0.3,0-0.7,0-1
		c0-5.5,0-12.9,0-20.2s0-14.7,0-20.2c0-0.3,0-0.7,0-1c-0.1-0.3-0.1-0.7,0.1-1c0.3-0.6,0.6-1.2,0.9-1.8c0.6-1.1,1.1-2.1,1.6-2.9
		c0.4-0.8,0.9-1.4,1.1-1.9C75.4,26.2,75.6,25.9,75.6,25.9z"/>
</g>
</svg>
